<svg width="24" height="24" viewBox="0 0 24 24" fill="none" xmlns="http://www.w3.org/2000/svg">
<circle cx="11.579" cy="7.77803" r="4.77803" stroke="#0C1A30" stroke-width="1.5" stroke-linecap="round" stroke-linejoin="round"/>
<path fill-rule="evenodd" clip-rule="evenodd" d="M4.00002 18.2016C3.99873 17.8657 4.07385 17.5339 4.2197 17.2313C4.67736 16.316 5.96798 15.8308 7.03892 15.6112C7.81128 15.4463 8.59431 15.3362 9.38217 15.2816C10.8408 15.1535 12.3079 15.1535 13.7666 15.2816C14.5544 15.3369 15.3374 15.447 16.1099 15.6112C17.1808 15.8308 18.4714 16.2702 18.9291 17.2313C19.2224 17.8481 19.2224 18.5642 18.9291 19.181C18.4714 20.1421 17.1808 20.5814 16.1099 20.7919C15.3384 20.9636 14.5551 21.0768 13.7666 21.1306C12.5794 21.2313 11.3866 21.2496 10.1968 21.1855C9.92221 21.1855 9.65677 21.1855 9.38217 21.1306C8.59663 21.0775 7.81632 20.9642 7.04807 20.7919C5.96798 20.5814 4.68652 20.1421 4.2197 19.181C4.0746 18.8749 3.99955 18.5403 4.00002 18.2016Z" stroke="#0C1A30" stroke-width="1.5" stroke-linecap="round" stroke-linejoin="round"/>
</svg>
