<svg width="20" height="18" viewBox="0 0 20 18" fill="none" xmlns="http://www.w3.org/2000/svg">
<path d="M0 16.3213V10.488C0.00220571 8.49953 0.79309 6.59316 2.19914 5.18711C3.60518 3.78107 5.51155 2.99018 7.5 2.98798H11.525V1.66631C11.5251 1.33673 11.6229 1.01456 11.806 0.740547C11.9891 0.466531 12.2494 0.252965 12.5539 0.126848C12.8584 0.000731436 13.1935 -0.0322734 13.5167 0.0320059C13.84 0.0962851 14.1369 0.254962 14.37 0.487978L19.27 5.38714C19.7387 5.85596 20.002 6.49173 20.002 7.15464C20.002 7.81756 19.7387 8.45333 19.27 8.92214L14.37 13.8213C14.1369 14.0543 13.84 14.213 13.5167 14.2773C13.1935 14.3416 12.8584 14.3086 12.5539 14.1824C12.2494 14.0563 11.9891 13.8428 11.806 13.5687C11.6229 13.2947 11.5251 12.9726 11.525 12.643V11.3213H6.66667C5.34099 11.3226 4.06999 11.8498 3.13259 12.7872C2.1952 13.7246 1.66799 14.9956 1.66667 16.3213C1.66667 16.5423 1.57887 16.7543 1.42259 16.9106C1.26631 17.0668 1.05435 17.1546 0.833333 17.1546C0.61232 17.1546 0.400358 17.0668 0.244078 16.9106C0.0877974 16.7543 0 16.5423 0 16.3213ZM13.1917 3.82131C13.1917 4.04233 13.1039 4.25429 12.9476 4.41057C12.7913 4.56685 12.5793 4.65464 12.3583 4.65464H7.5C5.95344 4.65641 4.47074 5.27156 3.37716 6.36514C2.28358 7.45872 1.66843 8.94142 1.66667 10.488V11.9163C2.29131 11.2054 3.06041 10.636 3.92263 10.246C4.78484 9.85596 5.72034 9.65436 6.66667 9.65464H12.3583C12.5793 9.65464 12.7913 9.74244 12.9476 9.89872C13.1039 10.055 13.1917 10.267 13.1917 10.488V12.643L18.0908 7.74381C18.2471 7.58754 18.3348 7.37562 18.3348 7.15464C18.3348 6.93367 18.2471 6.72175 18.0908 6.56548L13.1917 1.66631V3.82131Z" fill="#0C1A30"/>
</svg>
