<?xml version="1.0" encoding="iso-8859-1"?>
<!-- Uploaded to: SVG Repo, www.svgrepo.com, Generator: SVG Repo Mixer Tools -->
<!DOCTYPE svg PUBLIC "-//W3C//DTD SVG 1.1//EN" "http://www.w3.org/Graphics/SVG/1.1/DTD/svg11.dtd">
<svg fill="#000000" version="1.1" id="Capa_1" xmlns="http://www.w3.org/2000/svg" xmlns:xlink="http://www.w3.org/1999/xlink" 
	 width="800px" height="800px" viewBox="0 0 477.871 477.871"
	 xml:space="preserve">
<g>
	<g id="_x34_4_63_">
		<g>
			<path d="M242.561,166.518c21.043-8.141,137.924-112.897,62.01-159.133c-69.381-42.257-88.918,108.816-77.842,149.771
				C227.27,161.711,235.52,167.324,242.561,166.518z"/>
			<path d="M391.649,170.475c-74.879-53.202-136.949,17.734-151.728,17.734c-0.278,0-1.693,0-1.971,0
				c-14.777,0-76.85-70.937-151.728-17.734c-74.88,53.203-18.72,307.396,124.14,307.396c11.424,0,20.799,0,30.297,0
				c8.359,0,16.812,0,26.851,0C410.37,477.872,466.528,223.678,391.649,170.475z M327.606,299.064
				c-3.943,24.205-35.057,53.718-60.055,77.432c-6.748,6.382-13.578,12.853-17.789,17.417c-0.429,0.514-5.148,5.875-10.468,5.875
				c-5.283,0-10.109-5.282-10.646-5.882c-3.959-4.263-10.041-9.983-17.083-16.619l-0.578-0.543
				c-25.278-23.78-56.746-53.371-60.731-77.67c-2.729-16.749-0.243-30.316,7.384-40.324c7.693-10.096,19.785-15.901,36.973-17.748
				c1.423-0.143,2.886-0.229,4.397-0.229c15.255,0,30.455,7.161,39.927,18.536c9.461-11.375,24.668-18.536,39.932-18.536
				c1.512,0,2.982,0.086,4.377,0.229c17.216,1.847,29.31,7.648,36.998,17.751C327.877,268.766,330.346,282.328,327.606,299.064z"/>
		</g>
	</g>
</g>
</svg>